<?xml version="1.0" standalone="no"?><!DOCTYPE svg PUBLIC "-//W3C//DTD SVG 1.1//EN" "http://www.w3.org/Graphics/SVG/1.1/DTD/svg11.dtd"><svg t="1555059400852" class="icon" style="" viewBox="0 0 1024 1024" version="1.1" xmlns="http://www.w3.org/2000/svg" p-id="2081" xmlns:xlink="http://www.w3.org/1999/xlink" width="200" height="200"><defs><style type="text/css"></style></defs><path d="M791.97184 175.47264h-83.9936V119.48032h-75.41248c-24.24832-33.3312-68.88448-55.99744-120.56576-55.99744-51.68128 0-96.31744 22.66112-120.56576 55.99744h-75.4176v55.99232H232.02816c-61.8496 0-111.98464 50.14016-111.98464 111.99488v559.93856c0 61.8496 50.13504 111.98464 111.98464 111.98464H791.9616c61.8496 0 111.98976-50.13504 111.98976-111.98464V287.46752c0-61.85472-50.13504-111.99488-111.98464-111.99488z m-419.95776 0H434.2272c0-30.9248 34.82112-55.99232 77.7728-55.99232s77.7728 25.06752 77.7728 55.99232h62.208v111.99488H372.0192V175.47264z m475.95008 671.93344c0 30.9248-25.06752 55.99232-55.99232 55.99232H232.02816c-30.9248 0-55.99232-25.07264-55.99232-55.99232V287.46752c0-30.9248 25.06752-55.99744 55.99232-55.99744h83.9936v111.98976h391.95648V231.47008h83.9936c30.9248 0 55.99232 25.07264 55.99232 55.99744v559.93856z m-139.98592-111.99488H316.02176a27.99616 27.99616 0 0 0 0 55.99744h391.95648a27.99616 27.99616 0 1 0 0-55.99744z m0-279.96672H316.02176a27.99616 27.99616 0 0 0 0 55.99744h391.95648a27.99616 27.99616 0 0 0 0-55.99744z m0 139.9808H316.02176a28.00128 28.00128 0 0 0 0 55.99744h391.95648a27.99616 27.99616 0 1 0 0-55.99232z" p-id="2082"></path></svg>